<?xml version="1.0" encoding="UTF-8" standalone="no"?>
<!-- Created with Inkscape (http://www.inkscape.org/) -->
<svg
   xmlns:dc="http://purl.org/dc/elements/1.1/"
   xmlns:cc="http://web.resource.org/cc/"
   xmlns:rdf="http://www.w3.org/1999/02/22-rdf-syntax-ns#"
   xmlns:svg="http://www.w3.org/2000/svg"
   xmlns="http://www.w3.org/2000/svg"
   xmlns:sodipodi="http://sodipodi.sourceforge.net/DTD/sodipodi-0.dtd"
   xmlns:inkscape="http://www.inkscape.org/namespaces/inkscape"
   width="400"
   height="400"
   id="svg4611"
   sodipodi:version="0.32"
   inkscape:version="0.44"
   version="1.0"
   sodipodi:docbase="C:\Documents and Settings\HP_Owner\Desktop\hard\My Documents\New Folder"
   sodipodi:docname="greek lc mu.svg">
  <defs
     id="defs4613" />
  <sodipodi:namedview
     id="base"
     pagecolor="#ffffff"
     bordercolor="#666666"
     borderopacity="1.0"
     gridtolerance="10000"
     guidetolerance="10"
     objecttolerance="1.6"
     inkscape:pageopacity="0.0"
     inkscape:pageshadow="2"
     inkscape:zoom="0.7"
     inkscape:cx="415.90919"
     inkscape:cy="190.61883"
     inkscape:document-units="px"
     inkscape:current-layer="layer1"
     inkscape:object-bbox="true"
     inkscape:object-points="true"
     inkscape:object-nodes="true"
     inkscape:grid-points="true"
     inkscape:window-width="853"
     inkscape:window-height="573"
     inkscape:window-x="271"
     inkscape:window-y="82"
     width="400px"
     height="400px" />
  <metadata
     id="metadata4616">
    <rdf:RDF>
      <cc:Work
         rdf:about="">
        <dc:format>image/svg+xml</dc:format>
        <dc:type
           rdf:resource="http://purl.org/dc/dcmitype/StillImage" />
      </cc:Work>
    </rdf:RDF>
  </metadata>
  <g
     inkscape:label="Layer 1"
     inkscape:groupmode="layer"
     id="layer1"
     transform="translate(-256.6798,-531.7963)">
    <path
       style="font-size:400px;font-style:normal;font-weight:normal;text-align:start;text-anchor:start;fill:black;fill-opacity:1;stroke:none;stroke-width:1px;stroke-linecap:butt;stroke-linejoin:miter;stroke-opacity:1;font-family:Times New Roman"
       d="M 485.73114,807.9458 C 462.16331,833.20622 441.65552,845.83642 424.2077,845.83643 C 413.00972,845.83642 402.59306,841.53955 392.9577,832.9458 L 392.9577,843.29736 C 392.95765,855.27652 394.78057,867.32077 398.42645,879.43018 C 402.59306,892.84158 404.67639,901.69574 404.67645,905.99268 C 404.67639,911.98219 402.78837,916.9301 399.01239,920.83643 C 395.2363,924.74259 390.5488,926.69571 384.94989,926.6958 C 379.22069,926.69571 374.6634,924.41707 371.27802,919.85986 C 367.89257,915.3025 366.19987,909.83375 366.19989,903.45361 C 366.19987,898.76605 367.89257,890.30252 371.27802,878.06299 C 375.18423,864.5213 377.13736,851.37027 377.13739,838.60986 L 377.13739,661.46143 L 409.36395,661.46143 L 409.36395,777.28174 C 409.36389,789.00054 410.373,797.59428 412.3913,803.06299 C 414.40945,808.53177 417.99018,812.9914 423.13348,816.44189 C 428.27663,819.89244 434.10345,821.61769 440.61395,821.61768 C 452.20239,821.61769 467.24143,813.67499 485.73114,797.78955 L 485.73114,661.46143 L 518.15302,661.46143 L 518.15302,797.20361 C 518.15284,808.66198 519.32471,816.57213 521.66864,820.93408 C 524.01221,825.29608 527.98356,827.47706 533.5827,827.47705 C 542.43667,827.47706 548.16583,818.81822 550.7702,801.50049 L 557.80145,801.50049 C 555.32728,831.05779 542.8273,845.83642 520.30145,845.83643 C 510.53566,845.83642 502.4302,842.54866 495.98505,835.97314 C 489.53959,829.39763 486.12162,820.0552 485.73114,807.9458 L 485.73114,807.9458 z "
       id="text5540" />
  </g>
</svg>
